<mxfile host="65bd71144e">
    <diagram name="Page-1" id="a9VuShd5SKipRdLEGQU_">
        <mxGraphModel dx="706" dy="329" grid="1" gridSize="10" guides="1" tooltips="1" connect="1" arrows="1" fold="1" page="1" pageScale="1" pageWidth="827" pageHeight="1169" math="0" shadow="0">
            <root>
                <mxCell id="0"/>
                <mxCell id="1" parent="0"/>
                <mxCell id="playing-card" value="&lt;font style=&quot;font-size: 24px; color: red;&quot;&gt;&lt;b&gt;A&lt;font style=&quot;color: black;&quot;&gt;&amp;spades;&lt;/font&gt;&lt;/b&gt;&lt;br&gt;&lt;/font&gt;" style="whiteSpace=wrap;html=1;rounded=1;arcSize=10;fillColor=#FFFFFF;strokeColor=#000000;aspect=fixed;" parent="1" vertex="1">
                    <mxGeometry x="100" y="100" width="80" height="120" as="geometry"/>
                </mxCell>
                <mxCell id="2" value="&lt;div style=&quot;font-size: 11px;&quot;&gt;&lt;b style=&quot;background-color: initial;&quot;&gt;&lt;font style=&quot;font-size: 11px;&quot; color=&quot;#ff0000&quot;&gt;A&lt;/font&gt;&lt;/b&gt;&lt;/div&gt;&lt;font style=&quot;font-size: 11px;&quot;&gt;&lt;div style=&quot;&quot;&gt;&lt;b style=&quot;background-color: initial;&quot;&gt;&lt;font style=&quot;font-size: 11px;&quot; color=&quot;#ff0000&quot;&gt;â™ &lt;/font&gt;&lt;/b&gt;&lt;/div&gt;&lt;/font&gt;" style="whiteSpace=wrap;html=1;rounded=1;arcSize=10;fillColor=#FFFFFF;strokeColor=#000000;aspect=fixed;align=center;" parent="1" vertex="1">
                    <mxGeometry x="229" y="100" width="80" height="120" as="geometry"/>
                </mxCell>
                 <mxCell id="ace-spades" value="&lt;font style=&quot;font-size: 16px; color: black;&quot;&gt;A&amp;spades;&lt;/font&gt;" style="whiteSpace=wrap;html=1;rounded=1;arcSize=10;fillColor=#FFFFFF;strokeColor=#000000;aspect=fixed;" vertex="1" parent="1">
                    <mxGeometry x="100" y="100" width="80" height="120" as="geometry">
                      <mxRectangle x="5" y="5" width="20" height="30" as="alternateBounds" />
                    </mxGeometry>
                  </mxCell>
            </root>
        </mxGraphModel>
    </diagram>
</mxfile>